<?xml version="1.0" standalone="no"?><!DOCTYPE svg PUBLIC "-//W3C//DTD SVG 1.1//EN" "http://www.w3.org/Graphics/SVG/1.1/DTD/svg11.dtd"><svg class="icon" width="200px" height="200.00px" viewBox="0 0 1024 1024" version="1.1" xmlns="http://www.w3.org/2000/svg"><path fill="#ffffff" d="M512 1024C282.624 1024 96 837.376 96 608c0-168.352 100.416-319.104 255.808-384.064l24.672 59.04C244.96 337.952 160 465.536 160 608c0 194.048 157.92 352 352 352 181.76 0 335.84-141.76 350.816-322.656l63.808 5.28C908.864 856.512 726.784 1024 512 1024zM862.496 578.592c-10.688-131.328-93.056-244.608-215.008-295.648l24.672-59.04c144.128 60.288 241.472 194.208 254.08 349.472L862.496 578.592zM608 288l-64 0L544 128l96 0L640 64l-256 0 0 64 96 0 0 160-64 0L416 192l-96 0L320 0l384 0 0 192-96 0L608 288zM905.376 137.376l45.248 45.248-96 96-45.248-45.248L905.376 137.376zM905.376 92.096l90.496 90.496L950.624 227.84l-90.496-90.496L905.376 92.096zM768 640l-288 0 0-288 64 0 0 224 224 0L768 640z" /></svg>