<?xml version="1.0" standalone="no"?><!DOCTYPE svg PUBLIC "-//W3C//DTD SVG 1.1//EN" "http://www.w3.org/Graphics/SVG/1.1/DTD/svg11.dtd"><svg class="icon" width="200px" height="200.00px" viewBox="0 0 1024 1024" version="1.1" xmlns="http://www.w3.org/2000/svg"><path fill="#ffffff" d="M147.378984 765.208932c12.222369 10.064216 27.509541 15.486716 43.126216 15.486716 2.679016 0 5.358031-0.159636 8.037047-0.469698 18.390859-2.209318 35.069727-11.841699 46.27493-26.654057l140.230812-185.847755 139.617851 118.05065c14.154371 11.952216 32.527834 17.896602 50.956555 15.694447 18.411325-1.938142 35.250852-11.275811 46.636157-25.951045l320.676533-412.737252c2.344395-3.013637 4.185322-6.259564 5.962805-9.497305l56.295144-66.580394c30.163997-35.676547 17.194614-58.833967-28.810163-51.452859L711.079483 177.790242c-46.030359 7.385201-55.599296 39.319517-21.269419 71.016427l53.05024 48.953945L558.312148 535.287379 417.954446 416.57772c-14.296611-12.016685-32.771381-17.688871-51.452859-15.641235-18.546402 2.074242-35.450397 11.726066-46.726208 26.691919L178.938771 614.295827l-67.635423-55.574736c-29.126364-23.948435-72.073502-19.674085-95.885837 9.634428-23.813359 29.261441-19.539009 72.381517 9.607822 96.284927L147.378984 765.208932 147.378984 765.208932z" /></svg>