<?xml version="1.0" standalone="no"?><!DOCTYPE svg PUBLIC "-//W3C//DTD SVG 1.1//EN" "http://www.w3.org/Graphics/SVG/1.1/DTD/svg11.dtd"><svg class="icon" width="200px" height="200.00px" viewBox="0 0 1024 1024" version="1.1" xmlns="http://www.w3.org/2000/svg"><path fill="#e6e6e6" d="M851.2 960H185.6c-64 0-108.8-51.2-108.8-108.8V179.2C76.8 115.2 128 64 192 64h448v57.6H192c-38.4 0-64 25.6-64 57.6v672c0 32 25.6 57.6 57.6 57.6h672c32 0 64-25.6 64-57.6v-448h57.6v448c-6.4 57.6-64 108.8-128 108.8z m-332.8-268.8c-6.4 6.4-19.2 12.8-25.6 12.8l-243.2 121.6c-25.6 12.8-51.2-12.8-38.4-38.4l121.6-243.2c0-12.8 6.4-19.2 12.8-32l435.2-435.2c19.2-19.2 57.6-19.2 76.8 0l96 96c19.2 19.2 19.2 57.6 0 76.8l-435.2 441.6z m-256 64c-6.4 12.8 6.4 25.6 19.2 19.2l153.6-89.6-83.2-83.2-89.6 153.6z m140.8-185.6l57.6 57.6 19.2 19.2 313.6-313.6-102.4-96L384 550.4c6.4 12.8 6.4 12.8 19.2 19.2zM896 198.4l-64-57.6c-12.8-12.8-25.6-12.8-38.4 0l-57.6 57.6L832 294.4l64-57.6c6.4-12.8 6.4-25.6 0-38.4z" /></svg>