<?xml version="1.0" standalone="no"?><!DOCTYPE svg PUBLIC "-//W3C//DTD SVG 1.1//EN" "http://www.w3.org/Graphics/SVG/1.1/DTD/svg11.dtd"><svg class="icon" width="200px" height="200.00px" viewBox="0 0 1024 1024" version="1.1" xmlns="http://www.w3.org/2000/svg"><path fill="#707070" d="M920.751986 411.714969l-79.677691 0c-7.513114-16.185634-18.162662-49.853431-31.79003-73.839729l56.274678-54.689576c17.771759-17.771759 17.792225-45.724391 0.034792-63.466474l-64.24214-63.851237c-17.73799-17.73799-46.500057-17.545608-64.272839 0.212848l-53.138244 56.358589c-23.951505-13.614066-57.619302-24.183795-73.80596-31.692816L610.134553 101.07707c0-25.117051-26.608008-45.447075-51.681056-45.447075l-90.847078 0c-25.086351 0-51.694359 20.330024-51.694359 45.447075l0 79.68383c-16.186657 7.507998-49.839105 18.161638-73.826426 31.770588l-54.703903-56.275701c-17.772782-17.771759-45.743834-17.771759-63.466474-0.033769l-63.851237 64.256466c-17.72264 17.72264-17.559934 46.485731 0.212848 64.272839l56.373938 53.139268c-13.628392 23.985274-24.183795 57.638745-31.692816 73.825402l-79.663364 0c-25.136493 0-45.468564 26.609031-45.468564 51.676963l0 90.849124c0 25.075095 20.331048 51.698452 45.468564 51.698452l79.678714 0c7.512091 16.186657 18.176988 49.831942 31.774681 73.824379l-56.279794 54.723346c-17.771759 17.769712-17.771759 45.706995-0.030699 63.449078l64.238047 63.866586c17.72264 17.721617 46.500057 17.545608 64.271816-0.230244l53.139268-56.371892c23.986297 13.615089 57.638745 24.177656 73.826426 31.692816l0 79.679737c0 25.119097 26.608008 45.451168 51.67594 45.451168l90.850148 0c25.073048 0 51.696406-20.332071 51.696406-45.467541l0-79.679737c16.186657-7.513114 49.833989-18.175965 73.839729-31.792077l54.710043 56.275701c17.766642 17.773805 45.703925 17.773805 63.447031 0.035816l63.866586-64.240093c17.72264-17.73799 17.545608-46.500057-0.227174-64.272839l-56.373938-53.142337c13.613042-23.984251 24.177656-57.615209 31.69077-73.801866l79.68383 0c25.117051 0 45.447075-26.612101 45.447075-51.683103l0-90.847078C966.219527 438.324 945.889503 411.714969 920.751986 411.714969L920.751986 411.714969zM513.020748 713.200418c-112.890117 0-204.403367-91.512227-204.403367-204.391087 0-112.89728 91.51325-204.41053 204.403367-204.41053 112.911606 0 204.409506 91.51325 204.409506 204.41053C717.430254 621.689215 625.932354 713.200418 513.020748 713.200418L513.020748 713.200418zM513.020748 713.200418" /></svg>