<?xml version="1.0" standalone="no"?><!DOCTYPE svg PUBLIC "-//W3C//DTD SVG 1.1//EN" "http://www.w3.org/Graphics/SVG/1.1/DTD/svg11.dtd"><svg class="icon" width="200px" height="200.00px" viewBox="0 0 1024 1024" version="1.1" xmlns="http://www.w3.org/2000/svg"><path fill="#ffffff" d="M403.205155 723.18891c-2.133593 0-2.133593 0-4.266164 0l-211.189933-34.131355c-12.799514-2.133593-23.465434-12.799514-21.331841-27.731598 0-23.465434 0-49.064462 0-72.529897 0-51.197032-2.133593-102.395088 4.266164-138.660036 14.933107-98.128925 83.195817-200.524013 223.989447-204.790176l0 0c55.464219 0 102.395088 27.731598 127.994116 78.929654 36.264948 72.529897 27.731598 174.924985-6.399757 219.72226l-2.133593 2.133593c-34.131355 44.798299-74.66349 98.128925-85.329411 155.725714C428.804183 714.656583 416.004669 723.18891 403.205155 723.18891zM219.74682 639.993093l164.259064 27.731598c17.065677-59.730383 57.596789-110.928439 89.595574-153.592121l2.133593-2.133593c19.199271-25.599028 29.865191-106.661252 0-164.259064-17.065677-34.131355-42.664705-49.064462-78.929654-49.064462-136.526443 2.133593-166.391634 121.594359-172.791391 159.991878-4.266164 29.865191-4.266164 81.062224-4.266164 127.994116C219.74682 605.861738 219.74682 622.927415 219.74682 639.993093zM288.010553 874.64846c-2.133593 0-4.266164 0-6.399757 0-36.264948-2.133593-66.13014-17.065677-87.461981-42.664705-27.731598-34.131355-40.531112-89.595574-31.998785-145.059793l0 0c2.133593-8.53335 4.266164-27.731598 4.266164-27.731598 0-6.399757 4.266164-12.799514 10.665921-17.065677 6.399757-4.266164 12.799514-6.399757 19.199271-4.266164l211.189933 34.131355c12.799514 2.133593 21.331841 12.799514 21.331841 25.599028 2.133593 42.664705-17.065677 104.528682-55.464219 142.9262C349.874529 863.98254 320.009338 874.64846 288.010553 874.64846zM215.480656 695.457312c-4.266164 31.998785-2.133593 76.79606 19.199271 104.528682 12.799514 14.933107 27.731598 21.331841 49.064462 23.465434 19.199271 2.133593 36.264948-6.399757 51.197032-21.331841 23.465434-21.331841 34.131355-55.464219 38.398542-83.195817L215.480656 695.457312C215.480656 693.323719 215.480656 695.457312 215.480656 695.457312L215.480656 695.457312zM763.721045 644.26028c-2.133593 0-4.266164 0-4.266164 0l-209.05634-40.531112c-14.933107-2.133593-23.465434-17.065677-21.331841-29.865191 10.665921-57.596789-10.665921-121.594359-27.731598-174.924985l0-2.133593c-17.065677-51.197032 10.665921-151.45955 68.263733-209.05634 42.664705-38.398542 93.861738-49.064462 147.193387-29.865191l0 0c132.26028 51.198056 159.991878 172.791391 140.79363 268.786723-6.399757 36.264948-25.599028 83.195817-42.664705 132.26028-8.53335 23.465434-17.065677 46.930869-25.599028 68.263733C785.052886 637.860523 776.520559 644.26028 763.721045 644.26028zM584.529897 556.797275l164.259064 31.998785c6.399757-14.933107 12.799514-31.998785 19.199271-49.064462 17.065677-44.798299 34.131355-91.729168 40.531112-121.594359 8.53335-46.930869 17.065677-162.125471-108.794845-209.05634l0 0c-34.131355-12.799514-63.996546-6.399757-91.729168 19.199271-44.798299 42.664705-63.996546 123.726929-55.464219 153.592121l0 2.133593C567.464219 433.070346 586.662467 494.933299 584.529897 556.797275zM646.39285 793.586237c-12.799514 0-25.599028-2.133593-38.398542-6.399757-34.131355-10.665921-59.730383-31.998785-74.66349-66.13014-23.465434-49.064462-19.199271-115.194602-4.266164-153.592121 4.266164-10.665921 17.065677-19.199271 29.865191-17.065677l209.05634 40.531112c6.399757 2.133593 12.799514 6.399757 17.065677 10.665921 4.266164 6.399757 4.266164 12.799514 4.266164 21.331841 0 0-4.266164 19.199271-6.399757 27.731598-10.665921 55.464219-40.531112 102.395088-78.929654 125.860523C686.924985 789.31905 667.725714 793.586237 646.39285 793.586237zM573.863976 610.127901c-4.266164 25.599028-4.266164 61.863976 8.53335 89.595574 8.53335 19.199271 23.465434 31.998785 42.664705 38.398542 21.331841 6.399757 38.398542 4.266164 53.330626-4.266164 29.865191-17.065677 46.930869-57.596789 53.330626-91.729168l0-2.133593L573.863976 610.127901zM526.932084 610.127901" /></svg>