<?xml version="1.0" standalone="no"?><!DOCTYPE svg PUBLIC "-//W3C//DTD SVG 1.1//EN" "http://www.w3.org/Graphics/SVG/1.1/DTD/svg11.dtd"><svg class="icon" width="200px" height="200.00px" viewBox="0 0 1024 1024" version="1.1" xmlns="http://www.w3.org/2000/svg"><path fill="#333333" d="M416.489204 149.237953c0 0-163.728992 15.008832-155.542542 195.110723 4.77577 38.885636 30.016641 235.360426 159.635767 268.106224 14.326287 2.729158 124.160811 31.381731 185.559183-147.356093 4.093225-11.597129 53.893444-135.758963 7.503904-225.127364C602.04941 219.505319 561.798684 137.640824 416.489204 149.237953zM550.884101 661.573597c0 0-148.412145-20.466124-304.262702 18.419512-37.521568 10.915607-128.936581 32.064276-130.300648 109.153002s0 79.135338 0 79.135338l561.454342 0C677.774069 868.281449 548.154943 817.797661 550.884101 661.573597zM618.42231 633.603569l285.84319 0 0 83.911108-285.84319 0 0-83.911108ZM718.706317 533.319561l85.275175 0 0 285.161668-85.275175 0 0-285.161668Z" /></svg>