<?xml version="1.0" standalone="no"?><!DOCTYPE svg PUBLIC "-//W3C//DTD SVG 1.1//EN" "http://www.w3.org/Graphics/SVG/1.1/DTD/svg11.dtd"><svg class="icon" width="200px" height="200.00px" viewBox="0 0 1024 1024" version="1.1" xmlns="http://www.w3.org/2000/svg"><path fill="#fff" d="M812.672 822.424L541.184 550.872l-271.544 271.544a27.56 27.56 0 0 1-38.872 0 27.544 27.544 0 0 1 0-38.872l271.608-271.488-271.544-271.6a27.544 27.544 0 0 1 0-38.872 27.56 27.56 0 0 1 38.872 0l271.488 271.608 271.544-271.488a27.44 27.44 0 0 1 38.872 0 27.488 27.488 0 0 1 0 38.816L580 512.064l271.544 271.608a27.408 27.408 0 0 1 0 38.752 27.56 27.56 0 0 1-38.872 0z"  /></svg>
