<?xml version="1.0" standalone="no"?><!DOCTYPE svg PUBLIC "-//W3C//DTD SVG 1.1//EN" "http://www.w3.org/Graphics/SVG/1.1/DTD/svg11.dtd"><svg class="icon" width="200px" height="200.00px" viewBox="0 0 1024 1024" version="1.1" xmlns="http://www.w3.org/2000/svg"><path fill="#333333" d="M246.673076 553.817408c-99.188047 0-179.883927 80.694857-179.883927 179.882903 0 99.18907 80.69588 179.883927 179.883927 179.883927s179.883927-80.694857 179.883927-179.883927C426.555979 634.513288 345.861122 553.817408 246.673076 553.817408zM246.673076 882.886075c-82.260515 0-149.184741-66.923202-149.184741-149.184741 0-82.260515 66.924225-149.183717 149.184741-149.183717s149.184741 66.923202 149.184741 149.183717C395.856793 815.96185 328.933591 882.886075 246.673076 882.886075zM776.676102 553.817408c-99.18907 0-179.883927 80.694857-179.883927 179.882903 0 99.18907 80.694857 179.883927 179.883927 179.883927 99.188047 0 179.882903-80.694857 179.882903-179.883927C956.559005 634.513288 875.864148 553.817408 776.676102 553.817408zM776.676102 882.886075c-82.261539 0-149.184741-66.923202-149.184741-149.184741 0-82.260515 66.923202-149.183717 149.184741-149.183717 82.260515 0 149.183717 66.923202 149.183717 149.183717C925.859819 815.96185 858.936617 882.886075 776.676102 882.886075zM738.818889 303.498292c53.42477 0 96.888677-43.463907 96.888677-96.888677s-43.463907-96.888677-96.888677-96.888677-96.889701 43.463907-96.889701 96.888677S685.394119 303.498292 738.818889 303.498292zM738.818889 140.420123c36.497239 0 66.189492 29.692253 66.189492 66.189492s-29.692253 66.189492-66.189492 66.189492-66.190515-29.692253-66.190515-66.189492S702.32165 140.420123 738.818889 140.420123zM559.120181 501.850849c-6.945179-5.556553-15.877619-11.102872-25.335015-16.974603-9.723455-6.037507-19.778462-12.280698-27.386744-18.410302-8.3072-6.694469-9.901511-10.282181-10.174734-11.094686 0.591471-2.232854 3.776-9.344832 20.733207-23.916712 13.013385-11.181667 29.523407-22.824845 44.089148-33.096792 3.643993-2.569522 7.172353-5.058203 10.511401-7.442506 6.073322-4.337795 11.667737-6.53688 16.629749-6.53688 12.158924 0 21.063735 14.371312 25.344225 27.821649 11.963473 37.601386 57.271378 58.170864 62.398142 60.392462l2.01796 0.873903 2.181689 0.273223c0.823761 0.103354 83.214237 10.30981 158.863171 11.763928 0.86674 0.017396 1.714038 0.024559 2.559289 0.024559 19.029402 0 34.521235-4.200672 46.047756-12.486382 10.989285-7.898901 17.894555-19.140942 19.970844-32.510438 4.26514-27.468608-12.871145-57.274448-37.420261-65.085344-26.721595-8.502651-76.369342-12.441357-116.26191-15.60542-10.833743-0.859577-21.066805-1.671059-29.736255-2.487657-0.202615-0.020466-5.111414-0.670266-17.249873-15.498996-10.148128-12.396331-22.261003-30.955013-33.796734-48.900733-30.850635-47.991014-61.256132-70.63985-104.947214-78.172407-2.609431-0.449231-5.408173-0.678452-8.322549-0.678452-33.69031 0-85.235266 31.338752-112.961748 50.018184-43.778062 29.494755-88.052428 67.302849-118.433366 101.136422-30.162974 33.590026-30.578436 64.795748-25.616424 85.058235 10.933003 44.642756 56.473199 76.829829 82.609463 86.631056 32.824593 12.308327 81.033571 50.746778 78.898955 80.633459-0.494257 6.924713-1.807159 17.164938-3.325745 29.02301-3.536546 27.596522-8.378831 65.390289-7.372921 97.221252 0.591471 18.72855 3.087315 33.363875 7.631818 44.740994 8.112772 20.315698 21.642926 26.797319 31.565926 28.65769 3.75451 0.704035 7.455809 1.061169 11.001565 1.060145 34.951023-0.002047 49.190329-33.513278 53.870932-44.525076 9.94142-23.396873 16.804734-55.020104 24.75173-91.636047 1.269923-5.851265 2.568499-11.831466 3.90903-17.921161 9.089006-41.24538 10.564613-76.810387 4.38896-105.70446C584.072479 527.250332 569.863872 510.446621 559.120181 501.850849zM556.382836 657.594983c-1.348718 6.121418-2.654456 12.132318-3.930519 18.014282-7.617491 35.098379-14.196327 65.409732-23.00597 86.141916-9.671267 22.7614-18.377556 25.831318-25.617447 25.831318-1.650593 0-3.448542-0.180102-5.341658-0.534166-8.04728-1.509377-13.344936-18.029632-14.171768-44.194548-0.928139-29.385261 3.735068-65.778122 7.139607-92.350314 1.577938-12.316513 2.940982-22.953781 3.496637-30.738072 1.638313-22.938432-10.446933-47.366797-34.952047-70.64599-18.234293-17.322527-42.676985-33.001625-63.787792-40.918945-21.140483-7.927553-55.964616-34.128285-63.571874-65.188698-4.724605-19.291368 1.373277-38.015825 18.640546-57.244772 28.791743-32.063253 70.939679-68.02121 112.744807-96.187713 49.004087-33.015951 81.622996-44.778856 95.808066-44.778856 1.170662 0 2.215458 0.077771 3.105734 0.231267 34.69008 5.981225 58.33664 24.071232 84.339874 64.520479 30.289863 47.118134 50.069349 76.110445 73.993225 78.362742 8.893554 0.838088 19.237133 1.658779 30.185486 2.526543 38.325887 3.040243 86.023212 6.824429 109.383246 14.256702 9.103332 2.89698 18.456351 17.825994 16.393365 31.121811-2.439562 15.709797-20.750603 19.006889-35.682687 19.006889-0.650823 0-1.301645-0.00614-1.969864-0.019443-67.035766-1.289366-139.690506-9.625218-153.364947-11.256368-11.577686-5.466502-37.179784-21.015639-43.430138-40.661072-9.80532-30.81482-30.216185-49.211818-54.597479-49.211818-11.490705 0-23.088858 4.122901-34.473139 12.255115-3.290953 2.350534-6.768147 4.803399-10.359952 7.335059-42.283012 29.819143-72.579015 52.753481-77.308737 76.404134-5.208629 26.046213 24.943089 44.7676 51.547003 61.284785 8.65717 5.374404 16.83441 10.45205 22.351054 14.864546C549.011962 533.079084 577.00041 564.023864 556.382836 657.594983z" /></svg>