<?xml version="1.0" standalone="no"?><!DOCTYPE svg PUBLIC "-//W3C//DTD SVG 1.1//EN" "http://www.w3.org/Graphics/SVG/1.1/DTD/svg11.dtd"><svg class="icon" width="200px" height="200.00px" viewBox="0 0 1024 1024" version="1.1" xmlns="http://www.w3.org/2000/svg"><path fill="#333333" d="M973.77408 902.49344c-2.06976 0-4.14464-0.3456-6.14528-1.03552L163.60064 613.43744l-101.29024 90.0352c-5.38496 4.79744-13.0496 5.9712-19.60704 3.00288-6.49216-2.93376-10.70208-9.4592-10.70208-16.64L32.00128 300.97536c0-6.97344 4.00512-13.3952 10.28736-16.43264 6.28224-3.00416 13.80736-2.14144 19.33312 2.20928l113.5104 90.83008L967.48928 89.48992c5.59488-2.07104 11.81056-1.2416 16.7104 2.17472 4.89984 3.4176 7.80032 9.0112 7.80032 14.94912l0 777.65248c0 5.93792-2.90048 11.53024-7.72992 14.91456C981.1584 901.3888 977.4336 902.49344 973.77408 902.49344zM159.5968 574.39232c2.06976 0 4.14208 0.3456 6.14528 1.10464l789.80224 282.87616L955.54432 132.64384 177.96096 415.31392c-6.00704 2.20928-12.70528 1.10336-17.60512-2.86592l-91.90016-73.53088 0 310.32064 78.98752-70.21824C150.82624 575.9808 155.17568 574.39232 159.5968 574.39232zM514.20928 935.6352c-23.06048 0-45.568-4.14208-66.35008-11.7376-90.17216-33.00352-157.35552-135.56864-111.44064-267.6864 3.3152-9.52832 13.67296-14.60352 23.2-11.22048 9.52704 3.27936 14.56768 13.70496 11.25504 23.19872-39.97696 114.99392 18.36544 195.43168 89.48224 221.46176 70.56256 25.85728 166.74304 1.17376 211.13728-114.06208 3.65952-9.35552 14.15552-14.01472 23.61472-10.4256 9.39008 3.5904 14.01472 14.15424 10.4256 23.54432C665.00352 893.86368 587.25888 935.6352 514.20928 935.6352z" /></svg>