<?xml version="1.0" standalone="no"?><!DOCTYPE svg PUBLIC "-//W3C//DTD SVG 1.1//EN" "http://www.w3.org/Graphics/SVG/1.1/DTD/svg11.dtd"><svg class="icon" width="200px" height="200.00px" viewBox="0 0 1024 1024" version="1.1" xmlns="http://www.w3.org/2000/svg"><path fill="#24c789" d="M535.552 828.416h-36.352c-2.56-0.512-4.608-1.024-7.168-1.536-23.04-2.56-46.08-3.584-69.12-7.68-28.16-4.608-54.784-1.024-81.408 8.704h-12.8c-0.512-0.512-1.024-1.536-1.536-2.048-59.392-35.84-103.936-85.504-129.536-150.016-31.232-78.848-47.616-161.28-52.736-245.76-1.024-12.8-2.048-25.088-3.584-37.376V340.48c0.512-3.584 1.536-7.168 2.048-10.24 4.096-35.328 17.408-65.536 43.52-90.624 20.992-19.968 43.52-38.912 72.192-47.104h21.504c6.656 3.072 14.848 4.608 20.48 8.704 17.408 12.288 34.816 25.088 50.176 39.424 7.168 6.656 11.264 16.896 14.848 26.112 2.56 7.168 3.072 16.384-6.144 21.504-1.024 0.512-1.536 3.072-2.048 4.608-2.048 12.288-7.68 20.48-18.944 21.504-3.584 5.632-5.12 11.264-9.216 14.336-7.168 5.632-15.36 9.728-23.04 15.872-11.776 10.24-37.376 4.608-46.592-8.192-2.56 1.536-4.608 3.072-7.68 4.608-3.072 1.536-6.144 2.56-9.216 4.096-6.656 2.56-9.216 7.168-6.656 14.336 15.872 47.104 37.376 90.624 74.24 124.928 30.208 28.16 52.736 61.952 69.12 100.352 2.56 5.632 5.12 11.776 8.192 18.944 20.992-108.544 85.504-154.624 193.536-140.288-22.016-66.048 10.24-121.344 53.248-147.456 43.008-26.112 90.624-33.28 139.776-24.064 52.736 10.24 83.456 46.08 98.816 95.744 4.096 13.824 6.144 28.16 9.216 41.984v37.888c-2.048 9.216-3.584 18.944-6.144 28.16-16.384 55.296-54.272 91.648-104.448 116.224-5.632 2.56-8.704 6.144-10.752 12.288-13.312 37.888-31.232 73.216-55.808 105.472-34.304 45.568-77.312 79.36-134.144 92.672-10.752 2.56-23.552 4.096-35.84 6.144z"  /></svg>
