<?xml version="1.0" standalone="no"?><!DOCTYPE svg PUBLIC "-//W3C//DTD SVG 1.1//EN" "http://www.w3.org/Graphics/SVG/1.1/DTD/svg11.dtd"><svg class="icon" width="200px" height="200.00px" viewBox="0 0 1024 1024" version="1.1" xmlns="http://www.w3.org/2000/svg"><path fill="#333333" d="M512 186.079c-199.653 0-361.979 131.501-361.979 293.472 0 90.142 49.066 172.93 135.53 228.995-19.442 45.46-53.872 83.142-97.071 106.26l-36.623 19.795 41.43 2.545c9.191 0.706 18.665 0.706 27.856 0.706 40.653 0 81.728-5.515 122.026-16.118 44.327-11.737 84.979-28.915 122.026-51.68 15.413 1.485 31.108 2.545 46.875 2.545 199.653 0 361.979-131.501 361.979-293.472-0.423-161.477-162.748-293.047-362.050-293.047v0 0zM323.658 712.22l7.354-19.018-17.605-10.605c-80.243-49.066-126.411-123.087-126.411-202.977 0-67.801 33.369-131.924 94.172-180.636 30.048-23.825 64.831-42.49 103.291-55.711 40.299-13.573 83.142-20.502 127.117-20.502s86.819 6.93 127.117 20.502c38.814 13.22 73.669 31.884 103.291 55.711 60.801 48.357 94.172 112.483 94.172 180.636 0 67.801-33.369 131.924-94.172 180.636-30.048 23.825-64.831 42.49-103.291 55.711-40.299 13.573-83.142 20.502-127.117 20.502-15.766 0-31.532-0.706-46.875-2.545l-8.767-1.131-7.354 4.737c-34.429 21.633-73.244 38.107-115.381 49.49-21.28 5.515-42.842 9.545-64.477 12.090 24.178-25.31 42.49-54.651 54.933-86.89v0 0zM323.658 712.22zM568.065 421.293h-212.876c-11.737 0-21.28-9.545-21.28-21.28v0c0-11.737 9.545-21.28 21.28-21.28h212.876c11.737 0 21.28 9.545 21.28 21.28v0c-0.070 11.453-9.545 21.28-21.28 21.28v0zM568.065 421.293zM690.091 553.572h-367.14c-11.737 0-21.28-9.545-21.28-21.28v0c0-11.737 9.545-21.28 21.28-21.28h367.14c11.737 0 21.28 9.545 21.28 21.28v0c0.285 11.737-9.614 21.28-21.28 21.28v0zM690.091 553.572z" /></svg>