<?xml version="1.0" standalone="no"?><!DOCTYPE svg PUBLIC "-//W3C//DTD SVG 1.1//EN" "http://www.w3.org/Graphics/SVG/1.1/DTD/svg11.dtd"><svg class="icon" width="200px" height="200.00px" viewBox="0 0 1024 1024" version="1.1" xmlns="http://www.w3.org/2000/svg"><path fill="#333333" d="M906.226957 850.573135 118.77797 850.573135c-29.658675 0-53.689959-24.046672-53.689959-53.68776L65.088011 331.59521c0-29.631878 24.031284-53.67855 53.689959-53.67855 0 0 107.379919 0 161.069878 0 53.688936 0 71.586272-107.375519 107.378896-107.375519 35.26867 0 197.263655 0 232.655127 0 53.218196 0 73.561333 107.375519 125.293628 107.375519 37.80248 0 161.052482 0 161.052482 0 29.640255 0 53.688936 24.047696 53.688936 53.67855l0 465.291189C959.915894 826.526463 935.867213 850.573135 906.226957 850.573135L906.226957 850.573135zM512.501952 331.59521c-118.599908 0-214.741418 96.14678-214.741418 214.740806 0 118.639051 96.14151 214.794018 214.741418 214.794018 118.617305 0 214.758815-96.15599 214.758815-214.794018C727.260767 427.740968 631.119257 331.59521 512.501952 331.59521L512.501952 331.59521zM772.00257 331.59521c-14.821151 0-26.828095 12.014638-26.828095 26.861788 0 14.81952 12.00592 26.825972 26.828095 26.825972 14.819104 0 26.861865-12.006452 26.861865-26.825972C798.864435 343.608825 786.822698 331.59521 772.00257 331.59521L772.00257 331.59521zM512.501952 707.440228c-88.958629 0-161.068855-72.14104-161.068855-161.105235 0-88.928379 72.110226-161.054069 161.068855-161.054069 88.940209 0 161.068855 72.124667 161.068855 161.054069C673.570807 635.299187 601.442161 707.440228 512.501952 707.440228L512.501952 707.440228zM154.570595 224.227877c0-9.883091 8.022026-17.904789 17.896312-17.904789l53.689959 0c9.891683 0 17.913709 8.021697 17.913709 17.904789 0 9.873882 0 17.904789 0 17.904789l-89.499981 0C154.570595 242.132666 154.570595 234.102782 154.570595 224.227877L154.570595 224.227877z" /></svg>