<?xml version="1.0" standalone="no"?><!DOCTYPE svg PUBLIC "-//W3C//DTD SVG 1.1//EN" "http://www.w3.org/Graphics/SVG/1.1/DTD/svg11.dtd"><svg class="icon" width="200px" height="200.00px" viewBox="0 0 1024 1024" version="1.1" xmlns="http://www.w3.org/2000/svg"><path d="M413.573192 166.151675l-12.641975 7.825985c-6.621987 4.213992-16.253968 2.407995-20.46796-4.81599-4.213992-6.621987-2.407995-16.253968 4.815991-20.46796l12.641975-7.825985c6.621987-4.213992 16.253968-2.407995 20.46796 4.81599 4.213992 7.223986 2.407995 16.253968-4.815991 20.46796" fill="#FFFFFF" /><path d="M1014.368019 511.699001c0 251.03351-203.475603 454.509112-454.509112 454.509112S105.349794 762.73251 105.349794 511.699001 308.825397 57.189888 559.858907 57.189888s454.509112 203.475603 454.509112 454.509113" fill="#F5E435" /><path d="M515.912992 57.189888c-21.069959 0-42.139918 1.805996-62.607877 4.213992 221.535567 30.70194 391.901235 220.33157 391.901234 450.295121 0 229.963551-170.365667 419.59318-391.901234 450.29512 20.46796 3.009994 41.537919 4.213992 62.607877 4.213992 251.03351 0 454.509112-203.475603 454.509113-454.509112-0.601999-251.03351-204.077601-454.509112-454.509113-454.509113" fill="#E6C61F" /><path d="M347.353322 207.689594l-89.697825 60.199883c-12.039976 7.825985-27.691946 4.213992-34.915932-8.427984-7.223986-12.641975-3.611993-29.497942 7.825985-37.323927l89.697824-60.199882c12.039976-7.825985 27.691946-4.213992 34.915932 8.427983 7.223986 12.641975 3.611993 29.497942-7.825984 37.323927M413.573192 166.151675l-12.641975 7.825985c-6.621987 4.213992-16.253968 2.407995-20.46796-4.81599-4.213992-6.621987-2.407995-16.253968 4.815991-20.46796l12.641975-7.825985c6.621987-4.213992 16.253968-2.407995 20.46796 4.81599 4.213992 7.223986 2.407995 16.253968-4.815991 20.46796" fill="#FFFFFF" /><path d="M893.366255 520.728983c0 21.069959-22.875955 38.527925-51.771899 38.527925-28.293945 0-51.771899-16.855967-51.771899-38.527925 0-21.069959 22.875955-38.527925 51.771899-38.527925 28.293945 0 51.771899 17.457966 51.771899 38.527925M243.207525 518.922986c0 21.069959-22.875955 38.527925-51.771899 38.527925-28.293945 0-51.771899-16.855967-51.771899-38.527925 0-21.069959 22.875955-38.527925 51.771899-38.527924 28.895944 0.601999 51.771899 17.457966 51.771899 38.527924" fill="#F4D1D0" /><path d="M50.567901 404.54321c9.631981 0 17.457966-6.621987 20.46796-15.65197C85.483833 340.129336 108.359788 294.979424 138.45973 255.247501c11.437978-15.049971 0-36.119929-18.059965-34.915931h-0.601999c-6.019988 0.601999-12.039976 3.611993-15.651969 8.427983C71.035861 272.705467 46.353909 322.67137 30.099941 376.249265c-4.815991 14.447972 5.417989 28.293945 20.46796 28.293945-0.601999 0 0 0 0 0M951.158142 455.111111c-25.885949-219.729571-205.883598-394.30923-426.215167-414.175191-117.389771-10.23398-226.351558 22.273956-314.243387 84.279835-17.457966 12.641975-7.825985 40.333921 13.845973 39.129924h0.601999c4.213992 0 7.825985-1.805996 10.835979-3.611993 86.085832-60.199882 194.44562-90.299824 310.631393-72.841858 182.405644 27.089947 329.895356 172.171664 358.7913 354.577308 13.845973 85.483833 1.805996 166.753674-28.895944 238.391534-4.815991 11.437978 0 24.079953 11.437978 28.895944h0.601999c10.835979 4.213992 22.875955-0.601999 27.691945-10.835979 31.303939-74.045855 45.149912-156.519694 34.915932-243.809524M858.450323 764.538507l-1.203997-1.203998c-9.631981-7.825985-23.477954-6.019988-30.70194 3.611993-11.437978 15.651969-24.079953 30.099941-37.925926 44.547913-8.427984 9.029982-7.825985 23.477954 1.805996 31.303939h0.601999c8.427984 7.223986 21.069959 6.621987 28.895944-1.203998 15.049971-15.651969 29.497942-31.905938 42.139917-49.363903 6.019988-8.427984 4.213992-21.069959-3.611993-27.691946M716.378601 871.092299c-55.383892 36.721928-119.797766 60.801881-189.027631 68.025867-202.271605 21.671958-415.379189-131.837743-463.539095-329.293357-10.23398-42.139918-12.641975-83.075838-10.23398-122.205761 1.203998-13.243974-8.427984-24.079953-21.069958-24.079953-11.437978 0-21.069959 8.427984-21.671958 19.865961-1.805996 25.283951-1.805996 51.1699 1.203997 77.657848 22.273956 220.33157 200.465608 398.523222 420.797179 420.797178 113.777778 11.437978 220.933568-18.059965 307.621399-75.249853 10.835979-7.223986 13.243974-22.273956 4.81599-31.905937v-0.601999c-7.223986-7.825985-19.865961-9.029982-28.895943-3.009994" fill="#3A3A3A" /><path d="M700.726631 654.372722c0 70.433862-85.483833 127.623751-191.435626 127.623751s-191.435626-57.189888-191.435626-127.623751h382.871252z" fill="#FFFFFF" /><path d="M509.291005 783.20047c-106.553792 0-192.639624-57.791887-192.639623-128.827748v-1.805997h385.881246v1.805997c-0.601999 71.035861-86.687831 128.827748-193.241623 128.827748z m-189.629629-127.62375c1.203998 68.627866 86.085832 124.613757 189.629629 124.613756s188.425632-55.985891 189.62963-124.613756h-379.259259z" fill="#F3CC60" /><path d="M506.281011 654.372722v127.623751" fill="#FFFFFF" /><path d="M505.077014 654.372722h3.009994v127.623751h-3.009994z" fill="#F3CC60" /><path d="M599.590829 653.770723v112.57378" fill="#FFFFFF" /><path d="M597.784832 653.770723h3.009995v111.971781h-3.009995z" fill="#F3CC60" /><path d="M412.369195 655.57672v106.553791" fill="#FFFFFF" /><path d="M410.563198 655.57672h3.009994v107.15579h-3.009994z" fill="#F3CC60" /><path d="M741.662551 320.263374c-22.273956 0-40.333921 10.835979-54.179894 28.895944-13.845973-18.059965-31.303939-28.895944-54.179894-28.895944-40.333921 0-73.443857 34.915932-73.443856 78.259848 0 25.885949 12.039976 43.945914 21.069958 58.393886 27.691946 42.139918 93.911817 87.891828 96.921811 89.697824 3.009994 2.407995 6.019988 3.009994 9.631981 3.009995 3.611993 0 6.621987-1.203998 9.631981-3.009995 3.009994-2.407995 69.229865-47.557907 96.921811-89.697824 9.631981-14.447972 21.069959-32.507937 21.069959-58.393886 0-43.343915-33.109935-78.259847-73.443857-78.259848z" fill="#ED7467" /><path d="M394.30923 320.263374c-22.273956 0-40.333921 10.835979-54.179894 28.895944-13.845973-18.059965-31.303939-28.895944-54.179894-28.895944-40.333921 0-73.443857 34.915932-73.443857 78.259848 0 25.885949 12.039976 43.945914 21.069959 58.393886 27.691946 42.139918 93.911817 87.891828 96.92181 89.697824 3.009994 2.407995 6.019988 3.009994 9.631982 3.009995 3.611993 0 6.621987-1.203998 9.631981-3.009995 3.009994-2.407995 69.229865-47.557907 96.921811-89.697824 9.631981-14.447972 21.069959-32.507937 21.069958-58.393886 0-43.343915-32.507937-78.259847-73.443856-78.259848z" fill="#ED7467" /></svg>