<?xml version="1.0" standalone="no"?><!DOCTYPE svg PUBLIC "-//W3C//DTD SVG 1.1//EN" "http://www.w3.org/Graphics/SVG/1.1/DTD/svg11.dtd"><svg class="icon" width="200px" height="200.00px" viewBox="0 0 1024 1024" version="1.1" xmlns="http://www.w3.org/2000/svg"><path fill="#333333" d="M742.271524 634.19504c-60.901045 0-113.946168 33.586956-141.654231 83.235726L400.387993 610.284467c14.126742-24.052812 22.237467-52.066843 22.237467-81.981153 0-21.652136-4.254907-42.307571-11.957333-61.19064l220.950228-140.504035c29.65746 38.189787 76.011184 62.770626 128.113843 62.770626 89.517803 0 162.118308-72.577992 162.118307-162.107052 0-89.540316-72.600505-162.129564-162.118307-162.129564-89.540316 0-162.118308 72.589248-162.118308 162.129564 0 20.825304 3.930519 40.73168 11.085476 59.022255L387.18939 427.14131c-29.706579-37.152155-75.408457-60.957327-126.680191-60.957327-89.541339 0-162.120354 72.577992-162.120355 162.118308s72.577992 162.107051 162.120355 162.107051c42.642193 0 81.428567-16.467043 110.370736-43.378973L584.004941 761.076822a162.671916 162.671916 0 0 0-3.850702 35.226292c0 89.562828 72.577992 162.139797 162.118308 162.139798 89.541339 0 162.119331-72.576969 162.119331-162.139798-0.002047-89.518826-72.579015-162.108075-162.120354-162.108074z m17.594727-518.244215c61.474097 0 111.321388 49.836035 111.321388 111.320365 0 61.473073-49.847292 111.310132-111.321388 111.310132-61.494563 0-111.319341-49.836035-111.319342-111.310132 0-61.48433 49.824779-111.320365 111.319342-111.320365zM260.642229 639.623679c-61.473073 0-111.320365-49.835012-111.320365-111.320365 0-61.48433 49.847292-111.319341 111.320365-111.319341s111.320365 49.835012 111.320364 111.319341c0 61.485353-49.846268 111.320365-111.320364 111.320365z m481.763348 267.9998c-61.471027 0-111.319341-49.825802-111.319341-111.319341 0-61.474097 49.847292-111.299899 111.319341-111.299899 61.474097 0 111.321388 49.825802 111.321388 111.299899 0 61.492516-49.847292 111.319341-111.321388 111.319341z"  /></svg>