<?xml version="1.0" standalone="no"?><!DOCTYPE svg PUBLIC "-//W3C//DTD SVG 1.1//EN" "http://www.w3.org/Graphics/SVG/1.1/DTD/svg11.dtd"><svg class="icon" width="200px" height="200.00px" viewBox="0 0 1024 1024" version="1.1" xmlns="http://www.w3.org/2000/svg"><path fill="#333333" d="M631.36 746.432c-3.52 13.056-6.208 25.6-10.56 37.568a179.328 179.328 0 0 1-181.888 116.864 179.392 179.392 0 0 1-166.144-177.6c-0.256-17.728 12.288-31.04 29.056-31.296 17.216-0.384 30.208 12.672 30.72 30.592 1.216 43.328 19.776 77.376 56.192 100.608 75.136 47.936 175.68-2.496 182.848-91.328 0.448-4.928-2.304-5.376-5.44-6.4l-147.648-46.976c-75.008-23.808-150.08-47.616-225.024-71.552-4.288-1.344-7.104-1.28-10.88 1.984-28.8 24.576-61.376 30.464-96 15.168-34.112-15.168-52.48-42.88-53.248-80.512a2996.736 2996.736 0 0 1 0-122.304c0.704-37.632 18.88-65.408 53.184-80.64 34.496-15.296 67.136-9.536 96 14.848 3.712 3.2 6.528 3.648 10.88 2.304C404.8 290.304 616.32 223.04 827.648 155.584a24.96 24.96 0 0 0 9.344-5.568c28.032-26.56 60.672-34.624 96.64-20.736 36.032 13.952 54.848 41.728 57.472 80.32 0.128 2.048 0.064 4.096 0.064 6.208v532.8c0 42.944-24.448 77.568-63.808 89.024-33.344 9.664-63.232 1.92-88.96-21.696a38.272 38.272 0 0 0-12.928-7.744c-62.72-20.16-125.568-40.192-188.288-60.096-1.92-0.64-3.904-1.152-5.824-1.664z m179.648-522.176l-6.336 1.792C609.28 288.192 413.76 350.4 218.24 412.48c-4.096 1.28-5.312 3.008-5.248 7.36 0.192 40.96 0.32 81.92-0.064 122.88 0 6.208 2.048 8.384 7.552 10.112A509067.748 509067.748 0 0 1 750.272 721.28l60.672 19.2 0.064-516.224z m120.32 258.432V310.08c0-32.448 0.128-64.96 0-97.408a29.824 29.824 0 1 0-59.712 1.216v540.16a30.08 30.08 0 0 0 28.032 27.52c18.56 0.896 31.68-12.352 31.68-31.808 0.064-89.088 0-178.048 0-267.072z m-778.816 0v-60.16a29.312 29.312 0 0 0-28.992-30.016 29.44 29.44 0 0 0-30.464 28.8c-0.32 40.768-0.32 81.472 0 122.24a29.312 29.312 0 0 0 30.08 28.416 29.312 29.312 0 0 0 29.376-29.696v-59.584z" /></svg>