<?xml version="1.0" standalone="no"?><!DOCTYPE svg PUBLIC "-//W3C//DTD SVG 1.1//EN" "http://www.w3.org/Graphics/SVG/1.1/DTD/svg11.dtd"><svg class="icon" width="200px" height="200.00px" viewBox="0 0 1024 1024" version="1.1" xmlns="http://www.w3.org/2000/svg"><path fill="#ffffff" d="M106.666667 341.333333 704 341.333333 704 213.333333 106.666667 213.333333 106.666667 341.333333ZM106.666667 576 704 576 704 448 106.666667 448 106.666667 576ZM106.666667 810.666667 704 810.666667 704 682.666667 106.666667 682.666667 106.666667 810.666667ZM768 810.666667 896 810.666667 896 682.666667 768 682.666667 768 810.666667ZM768 213.333333 768 341.333333 896 341.333333 896 213.333333 768 213.333333ZM768 576 896 576 896 448 768 448 768 576Z" /></svg>