<?xml version="1.0" standalone="no"?><!DOCTYPE svg PUBLIC "-//W3C//DTD SVG 1.1//EN" "http://www.w3.org/Graphics/SVG/1.1/DTD/svg11.dtd"><svg class="icon" width="200px" height="200.00px" viewBox="0 0 1024 1024" version="1.1" xmlns="http://www.w3.org/2000/svg"><path fill="#ffffff" d="M220.293777 780.319072c-24.520463 24.51944-24.520463 64.22065 0 88.744183 24.473391 24.511253 64.22372 24.517393 88.74009 0l168.887478-168.909991-88.745207-88.747253L220.293777 780.319072zM396.779304 386.088312c10.257621-22.214954 16.118096-46.866401 16.141632-72.928986 0-96.265484-78.038354-174.304861-174.324304-174.312024-96.271624-0.017396-174.322258 78.024028-174.322258 174.312024 0.021489 96.278787 78.070076 174.324304 174.322258 174.311001 24.212448 0.01228 47.257304-4.932336 68.224848-13.865799l397.039735 397.038712c24.511253 24.51637 64.228837 24.495904 88.742137 0 24.517393-24.514323 24.496927-64.22679 0.002047-88.744183L396.779304 386.088312zM621.30087 556.787042l64.078411-64.092737c14.141068 6.451946 29.266557 10.020214 44.50461 10.012028 27.457352 0 54.912657-10.44284 75.810616-31.337729L959.724603 317.337485l-33.381271-33.385365L791.341614 418.943604c-4.296863 4.287653-9.902534 6.459109-15.555278 6.430456-5.624091 0-11.281951-2.119267-15.563464-6.411013l-6.275937-6.316869c-4.15053-4.129041-6.429433-9.657964-6.452969-15.550161 0-5.891174 2.302439-11.417027 6.452969-15.555278L888.92614 246.542092l-40.786938-40.767496L713.158974 340.768127c-4.28663 4.2897-9.927093 6.438643-15.519462 6.429433-5.659907 0-11.302417-2.12029-15.581883-6.414083l-6.29538-6.327102c-4.145413-4.13825-6.407943-9.643638-6.435573-15.529695 0-5.89629 2.290159-11.441587 6.435573-15.570627l134.984321-134.994554-33.393551-33.385365L623.341343 288.998043c-20.162202 20.168342-31.268144 47.093575-31.268144 75.809593 0 12.828167 2.564405 25.189705 6.804986 36.873816l-66.36243 66.361407L621.30087 556.787042z" /></svg>