<?xml version="1.0" standalone="no"?><!DOCTYPE svg PUBLIC "-//W3C//DTD SVG 1.1//EN" "http://www.w3.org/Graphics/SVG/1.1/DTD/svg11.dtd"><svg class="icon" width="200px" height="200.00px" viewBox="0 0 1024 1024" version="1.1" xmlns="http://www.w3.org/2000/svg"><path fill="#ffffff" d="M72.41631 411.738505c0-18.936281 0-37.871539 0-56.80782 5.251607-13.311167 16.993023-18.394952 28.959565-23.844058C233.389538 270.973528 365.326453 210.691583 497.187643 150.247956c9.767458-4.476965 18.674315-5.697769 28.783557-1.066285 136.438439 62.506613 272.959765 124.833123 409.471882 187.179077 11.419074 5.214768 17.179264 14.042831 17.256012 26.524097 0.083911 13.608949 0.132006 27.220968-0.019443 40.828894-0.183172 16.439414-9.490142 25.443485-26.187429 25.542746-9.951653 0.059352-19.903306 0.011256-30.586622 0.011256 0 3.710508 0 6.310729 0 8.91095 0.005117 61.539588 0.016373 123.079176 0.01535 184.618764-0.001023 68.64031 0.040932 137.28062-0.047072 205.92093-0.030699 23.461341-12.707416 43.135426-32.983205 51.189869-16.779152 6.664793-34.169217 3.096525-52.108798 3.605108 0-114.075105 0-226.968291 0-340.085582-199.092407 0-397.439848 0-596.827991 0 0 113.645316 0 226.751351 0 340.244194-13.139252 0-25.272593 0.539282-37.337373-0.141216-13.873985-0.782829-25.520233-6.858198-34.626635-17.543561-9.975189-11.7056-12.678764-25.483394-12.662391-40.47176 0.14224-128.700197 0.080841-257.401418 0.079818-386.101615 0-3.142573 0-6.28617 0-10.126638-9.018398 0-17.006326-0.606821-24.869411 0.12996C89.583295 430.820096 78.644151 425.775196 72.41631 411.738505zM285.016359 429.710832c0-0.01228 0-0.023536 0-0.035816 20.690228 0 41.380456-0.11154 62.068637 0.064468 6.734378 0.057305 9.717316-2.644223 9.612938-9.472745-0.199545-13.002129-0.138146-26.010397 0.00921-39.013549 0.073678-6.479575-3.006474-8.861832-9.260921-8.845459-41.379433 0.11154-82.758865 0.121773-124.138298 0.01535-6.347568-0.016373-9.206686 2.51631-9.120728 8.942673 0.170892 12.707416 0.320295 25.425066-0.029676 38.125319-0.213871 7.748475 3.01159 10.435677 10.564613 10.32209C244.815775 429.511287 264.917602 429.710832 285.016359 429.710832zM739.0082 429.709809c20.693298 0 41.388643-0.150426 62.078871 0.082888 7.127328 0.080841 10.279111-2.587941 10.122545-9.885138-0.273223-12.70537-0.23536-25.424042-0.013303-38.132482 0.119727-6.887874-2.925632-9.400091-9.646708-9.376555-41.09086 0.13917-82.181721 0.161682-123.272581-0.025583-7.475252-0.033769-9.847276 3.251044-9.680477 10.246365 0.288572 12.113899 0.38067 24.249287-0.026606 36.356023-0.274246 8.136308 3.040243 10.988262 11.019984 10.850116C699.390901 429.480588 719.201086 429.710832 739.0082 429.709809zM512.940418 429.708785c20.396539 0 40.794102-0.115634 61.188594 0.066515 6.570649 0.058328 9.943466-2.210341 9.831926-9.221012-0.207731-13.003152-0.156566-26.012444-0.01842-39.017642 0.067538-6.309706-2.65548-9.130961-9.04398-9.117658-41.383526 0.086981-82.768075 0.112564-124.151601-0.023536-6.930853-0.022513-9.476839 3.022847-9.360182 9.683547 0.216941 12.411681 0.314155 24.836665-0.033769 37.242206-0.212848 7.599072 2.692319 10.603499 10.400884 10.484795C472.145293 429.489798 492.544903 429.697529 512.940418 429.708785zM249.193479 602.406033l526.807241 0 0 54.733579-526.807241 0 0-54.733579ZM249.193479 689.217191l526.807241 0 0 54.733579-526.807241 0 0-54.733579ZM249.193479 776.029372l526.807241 0 0 54.733579-526.807241 0 0-54.733579Z" /></svg>