<?xml version="1.0" standalone="no"?><!DOCTYPE svg PUBLIC "-//W3C//DTD SVG 1.1//EN" "http://www.w3.org/Graphics/SVG/1.1/DTD/svg11.dtd"><svg class="icon" width="200px" height="200.00px" viewBox="0 0 1024 1024" version="1.1" xmlns="http://www.w3.org/2000/svg"><path fill="#ffffff" d="M103.053 264.934h49.4c17.32 0 31.355-15.872 31.355-45.145 0-29.29-14.018-43.59-31.356-43.59h-49.399c-17.32 0-31.355 14.3-31.355 43.59 0 29.273 14.018 45.145 31.355 45.145z m226.022 0H912.19c22.175 0 40.112-15.872 40.112-45.145 0-29.29-17.955-43.59-40.112-43.59H329.075c-22.157 0-40.113 14.3-40.113 43.59 0 29.273 17.938 45.145 40.113 45.145z m-174.68 227.345h-52.083c-16.26 0-29.431 17.496-29.431 43.379 0 25.935 13.17 46.062 29.43 46.062h52.083c16.26 0 33.81-20.144 33.81-46.062 0-25.865-17.55-43.379-33.81-43.379z m757.795 0H329.075c-22.157 0-40.113 17.496-40.113 43.379 0 25.935 17.956 46.062 40.113 46.062H912.19c22.175 0 40.112-20.144 40.112-46.062 0-25.865-17.937-43.379-40.112-43.379zM155.366 774.34h-50.159c-15.73 0-28.46 17.584-28.46 43.449s12.73 47.65 28.46 47.65h50.159c15.73 0 32.82-21.786 32.82-47.65s-17.09-43.45-32.82-43.45z m756.824 0H329.075c-22.157 0-40.113 17.584-40.113 43.449s17.956 46.415 40.113 46.415H912.19c22.175 0 40.112-20.55 40.112-46.415s-17.937-43.45-40.112-43.45z" /></svg>