<?xml version="1.0" standalone="no"?><!DOCTYPE svg PUBLIC "-//W3C//DTD SVG 1.1//EN" "http://www.w3.org/Graphics/SVG/1.1/DTD/svg11.dtd"><svg class="icon" width="200px" height="200.00px" viewBox="0 0 1024 1024" version="1.1" xmlns="http://www.w3.org/2000/svg"><path fill="#ffffff" d="M588.046 705.36c0 64.105 51.98 116.080 116.085 116.080 64.109 0 116.085-51.974 116.085-116.080 0-64.105-51.978-116.080-116.085-116.080-64.105 0-116.085 51.974-116.085 116.080zM201.094 646.077c0 53.43 43.306 96.734 96.738 96.734 53.435 0 96.738-43.305 96.738-96.734s-43.303-96.734-96.738-96.734c-53.433 0-96.738 43.305-96.738 96.734zM742.828 375.243v333.125l77.391-0.020v-333.104zM317.18 336.547v318.224l77.391-0.019v-318.204zM317.18 278.469v77.387c0 42.737 34.653 77.387 77.391 77.387l348.256 38.692c42.738 0 77.391-34.65 77.391-77.387v-77.387c0-42.736-34.651-77.387-77.391-77.387l-348.256-38.692c-42.737 0-77.391 34.651-77.391 77.387zM394.57 278.469l348.256 38.692v77.387l-348.256-38.692v-77.387z" /></svg>