<?xml version="1.0" standalone="no"?><!DOCTYPE svg PUBLIC "-//W3C//DTD SVG 1.1//EN" "http://www.w3.org/Graphics/SVG/1.1/DTD/svg11.dtd"><svg class="icon" width="200px" height="200.00px" viewBox="0 0 1024 1024" version="1.1" xmlns="http://www.w3.org/2000/svg"><path fill="#ffffff" d="M943.489707 271.69792l-1.283413-2.041173-33.232213-32.969387c8.94976-12.270933 13.817173-26.81856 13.817173-41.393493 0-17.872213-6.64576-36.031147-20.462933-49.322667l-26.81856-26.559147-1.28-1.542827c-13.294933-12.270933-30.90432-18.916693-48.042667-18.916693l0-0.498347c-14.312107 0-28.624213 4.867413-41.393493 14.308693l-33.204907-33.46432 0 0 0 0c-13.29152-13.554347-31.19104-20.462933-49.322667-20.462933-17.896107 0-35.76832 6.908587-49.322667 20.462933l0 0-23.261867 23.23456-1.256107 1.283413c-6.64576 6.382933-12.01152 14.574933-15.332693 22.739627-13.032107-11.748693-29.648213-17.636693-46.001493-17.636693-18.131627 0-36.031147 6.908587-49.585493 20.200107l-24.51456 24.517973 0 0 0 0-1.024 2.03776c-12.76928 13.059413-19.41504 30.6688-19.41504 47.547733 0 17.8688 7.144107 35.76832 20.43904 49.558187l0 0 72.05888 71.563947-2.304 1.518933-241.984853 241.984853-70.280533-70.77888-1.020587-0.75776c-13.52704-13.55776-31.685973-20.435627-49.558187-20.435627-17.636693 0-35.795627 6.877867-49.322667 20.435627l-24.54528 24.282453-0.23552 0.262827c-13.032107 13.52704-19.677867 31.42656-19.677867 49.291947 0 16.61952 5.628587 33.232213 17.373867 46.26432-8.451413 3.324587-16.35328 8.68352-22.99904 15.07328l0 0-24.54528 24.54528c-13.267627 13.789867-19.913387 31.66208-19.913387 49.558187 0 17.63328 6.64576 35.5328 19.913387 49.05984l33.232213 33.46432c-8.68352 12.274347-13.554347 26.84928-13.554347 41.659733 0 17.896107 6.64576 35.269973 20.200107 49.05984l27.081387 26.845867c13.29152 13.523627 31.163733 20.1728 49.558187 20.1728 14.076587 0 28.624213-4.082347 41.4208-13.29152l32.70656 33.232213c13.52704 13.29152 31.42656 20.1728 49.29536 20.1728 18.158933 0 36.031147-6.88128 49.322667-20.1728l1.283413-1.542827 23.497387-22.99904 0 0c6.64576-7.144107 11.776-14.810453 15.07328-22.99904 13.29152 11.776 29.6448 17.896107 46.260907 17.896107 17.896107 0 36.031147-7.14752 49.585493-20.957867l23.23456-22.99904 1.024-1.518933 0.262827 0-0.262827 0 0.262827 0c13.550933-13.554347 20.69504-31.19104 20.69504-49.063253 0-17.892693-7.144107-36.29056-20.69504-49.58208l-0.262827 0 0 0.262827-71.540053-71.799467 242.244267-241.749333 1.283413-1.778347 71.799467 71.799467 0 0 0 0 0 0 1.518933 1.542827c13.29152 12.270933 30.405973 18.653867 48.039253 18.653867 17.896107 0 35.76832-6.37952 49.05984-20.196693l1.283413-1.522347 23.261867-22.995627c13.52704-13.817173 20.435627-31.689387 20.435627-49.585493 0-16.35328-5.884587-32.969387-17.636693-46.237013 8.424107-3.324587 16.090453-8.451413 22.739627-15.59552l0 0 24.541867-24.019627 0-0.52224c13.52704-13.267627 20.1728-31.163733 20.1728-49.063253C962.379093 302.363307 956.258987 284.98944 943.489707 271.69792L943.489707 271.69792zM826.187093 141.888853 826.187093 141.888853c6.382933 0 13.032107 2.304 18.158933 7.168l0.498347 1.020587 27.344213 26.29632c5.102933 5.13024 7.144107 12.008107 7.144107 18.916693 0 3.846827-0.498347 6.908587-1.518933 9.970347l-61.334187-61.334187C819.305813 142.90944 823.125333 141.888853 826.187093 141.888853L826.187093 141.888853zM192.47104 882.674347 192.47104 882.674347c-7.144107 0-14.288213-2.563413-18.8928-7.666347l-27.081387-26.845867c-5.13024-4.84352-7.929173-11.748693-7.929173-18.394453 0-3.584 0.75776-7.144107 2.041173-10.205867l61.334187 61.30688C199.1168 882.152107 195.29728 882.674347 192.47104 882.674347L192.47104 882.674347zM359.33184 890.576213 359.33184 890.576213 359.33184 890.576213 359.33184 890.576213l-23.497387 22.99904-1.020587 1.542827c-5.09952 5.102933-12.01152 7.666347-18.916693 7.666347-6.382933 0-13.52704-2.563413-18.65728-7.666347l-190.621013-190.621013c-5.362347-5.13024-7.666347-12.274347-7.666347-18.916693 0-6.908587 2.304-13.789867 7.666347-18.916693l24.54528-24.517973c5.102933-5.102933 11.748693-7.666347 18.8928-7.666347 6.41024 0 13.554347 2.563413 18.65728 7.666347l192.16384 192.160427c4.082347 4.584107 6.12352 10.728107 6.12352 17.37728C366.998187 878.82752 364.721493 885.47328 359.33184 890.576213L359.33184 890.576213zM494.76608 802.686293 494.76608 802.686293c5.13024 5.102933 7.666347 12.01152 7.666347 18.91328 0 6.649173-2.53952 13.79328-7.666347 18.896213l-1.020587 1.020587-23.497387 22.995627c-5.13024 5.369173-12.01152 8.192-18.916693 8.192l0 0c-6.64576 0-13.550933-2.563413-18.916693-7.66976l0-0.52224L156.4672 589.06624c-5.13024-5.102933-7.430827-12.270933-7.430827-18.920107 0-6.877867 2.304-13.786453 7.430827-18.889387l24.517973-24.548693c5.362347-5.09952 12.01152-7.662933 18.916693-7.662933 7.144107 0 13.789867 2.563413 18.8928 7.662933l1.283413 1.024L494.76608 802.686293 494.76608 802.686293zM644.775253 407.630507 644.775253 407.630507l-241.984853 241.984853-31.19104-30.900907 242.507093-241.749333 1.518933-2.041173 31.19104 31.19104L644.775253 407.630507 644.775253 407.630507zM861.457067 473.56928 861.457067 473.56928 861.457067 473.56928l-23.261867 23.497387-1.020587 1.020587-0.262827 0c-4.840107 5.13024-12.01152 7.666347-18.394453 7.666347-6.64576 0-13.29152-2.53952-18.131627-6.64576l-0.75776-1.020587 0 0 0 0-275.213653-274.428587-0.75776-1.522347 0 0 0 0c-5.36576-5.123413-7.666347-11.776-7.666347-18.91328 0-6.64576 2.041173-13.29152 6.64576-17.896107l1.020587-1.020587 24.517973-24.517973c5.13024-4.604587 11.748693-7.666347 18.916693-7.666347 6.64576 0 13.52704 3.06176 18.65728 7.666347l42.154667 41.89184 0.52224 0.52224 190.358187 190.621013 42.676907 42.939733 0.262827 0c5.362347 5.102933 7.666347 11.748693 7.666347 18.8928C869.38624 461.817173 867.08224 468.466347 861.457067 473.56928L861.457067 473.56928zM911.80032 338.131627 911.80032 338.131627l-24.54528 24.54528 0 0 0 0 0 0c-5.102933 5.102933-12.01152 7.666347-18.8928 7.666347l0 0.498347c-6.147413 0-12.53376-2.563413-17.401173-6.64576l-192.39936-192.662187c-4.867413-4.608-7.144107-11.748693-7.144107-18.394453 0-6.908587 2.276693-13.817173 7.666347-18.920107l0.75776-1.28 23.760213-23.23456 0 0c5.102933-5.13024 11.748693-7.66976 18.65728-7.66976 6.64576 0 13.789867 2.542933 18.916693 7.66976l0 0 191.378773 191.6416c4.604587 4.840107 6.908587 11.250347 6.908587 17.8688C919.466667 326.382933 916.903253 333.032107 911.80032 338.131627L911.80032 338.131627z" /></svg>