<?xml version="1.0" standalone="no"?><!DOCTYPE svg PUBLIC "-//W3C//DTD SVG 1.1//EN" "http://www.w3.org/Graphics/SVG/1.1/DTD/svg11.dtd"><svg class="icon" width="200px" height="200.00px" viewBox="0 0 1024 1024" version="1.1" xmlns="http://www.w3.org/2000/svg"><path fill="#333333" d="M514.048 443.904c-36.352 0-64 27.648-64 64s27.648 64 64 64c34.304 0 64-27.648 64-64s-29.696-64-64-64z"  /><path fill="#333333" d="M514.048 42.496C256 42.496 49.152 251.904 49.152 507.904s208.896 462.848 462.848 462.848c258.048 0 467.456-206.848 467.456-462.848 0-256-209.408-465.408-465.408-465.408z m266.752 237.056l-157.696 324.096c-4.096 6.656-8.704 12.8-14.848 14.848l-320 153.6c-4.096 2.048-8.704 4.096-12.8 4.096-8.704 0-16.896-2.048-23.552-8.704-10.752-8.704-12.8-23.552-6.656-36.352l155.648-326.144c2.048-6.656 8.704-12.8 14.848-14.848l322.048-151.552c12.8-6.656 27.648-4.096 36.352 6.656 10.752 10.752 13.312 25.6 6.656 34.304z"  /></svg>