<?xml version="1.0" standalone="no"?><!DOCTYPE svg PUBLIC "-//W3C//DTD SVG 1.1//EN" "http://www.w3.org/Graphics/SVG/1.1/DTD/svg11.dtd"><svg class="icon" width="200px" height="200.00px" viewBox="0 0 1024 1024" version="1.1" xmlns="http://www.w3.org/2000/svg"><path fill="#1296db" d="M335.722204 904.94037c337.12925-109.217471 588.047-219.146139 589.375252-257.428024 1.070378-31.000038-220.046648 12.322653-182.245717 1.489934 115.198695-33.025161 200.597691-47.278793 214.715223-18.426675 24.469298 50.015114-147.641595 157.275-384.428509 239.564167-236.793054 82.289168-462.131219 115.233488-486.600517 65.217351C69.026096 899.56085 187.727569 831.755558 315.39832 783.000134c23.696702-9.05012-195.225333 107.591437-193.273888 130.543172C124.942617 946.717869 298.632471 916.958078 335.722204 904.94037zM976.841957 257.30625C934.596807 152.871713 841.414545 101.670587 841.414545 101.670587s-40.73475-11.096732-74.491575-6.768147c-26.731828 3.428076-38.824237 20.234857-54.174853 33.831526-5.466502 4.850471 4.477988 41.188074 27.091008 47.37396 11.286044 3.082198 20.018939-14.171768 27.083845-13.535271 8.806573 0.785899 15.011902 11.862165 20.316721 6.768147 31.094182-29.881564 32.890085-26.690896 60.943001 0 15.398712 14.639418 14.409175 61.525262 20.316721 87.965447 5.887081 26.366508 25.457812 45.835931 27.083845 54.141084 5.995551 30.586622-37.374212 3.888564-74.484412 13.528108-27.517727 7.153934-44.413536 48.742121-67.717288 47.37396-80.094176-4.708232-102.71436 96.04138-155.751297 60.902068-9.863648-6.544043-38.120203-29.887704-42.310641-52.746318 0.073678-4.062526-2.1295-21.267373-2.046612-24.239054 0.276293-9.927093 17.273409-17.755386 17.273409-17.755386s7.384178 5.514597 13.542434-6.768147c6.246261-12.464893 12.504802-41.970904 3.210112-51.258431-25.823132-26.685779-5.856381-33.834596-9.838066-56.295144-1.208525-6.818289-4.861728-17.287735-13.054317-25.739221-13.370519-13.793144-31.144324-18.705014-46.157249-20.054755-15.433504-3.078105-52.228525-7.385201-74.135464 15.229866-35.193547 36.331463 13.352099 53.246715-20.322861 88.067778-7.980765 13.536294 0.521886 34.942837 6.774287 47.421033 6.158257 12.296047 13.548574 6.774287 13.548574 6.774287s8.960069 11.000542 9.031701 23.468504c0.037862 6.630001-0.341784 24.019043 0.419556 28.859281-4.086062 27.164686-26.678616 35.970236-36.548404 42.514279-53.057403 35.17922-75.683726-65.685002-155.811672-60.969607-23.310915 1.36816-40.212864-40.259936-67.743894-47.421033-37.130665-9.653871-80.513732 17.077957-74.518181-13.548574 1.626034-8.305153 21.203928-27.802206 27.098171-54.19532 5.907547-26.473955 4.925173-73.407893 20.322861-88.067778 28.066219-26.718525 29.862121-29.915333 60.969607 0 5.304819 5.101181 11.516288-5.982248 20.322861-6.774287 7.065929-0.636496 15.804964 16.637935 27.098171 13.548574 22.620184-6.192026 32.571836-42.570561 27.098171-47.421033-15.350616-13.616112-27.450189-30.43722-54.19532-33.872458-33.770128-4.335748-74.518181 6.774287-74.518181 6.774287s-93.223195 51.255361-135.488811 155.811672c-15.303544 37.849026-29.17753 54.520731-27.098171 74.518181 2.771113 26.66429 27.585265 54.019311 54.19532 94.842065 41.425482 63.544245 101.616352 67.743894 101.616352 67.743894s39.643905 5.649674 60.969607 40.646746c11.029194 18.0941 14.680351 55.685253 40.646746 94.842065 23.351847 35.20685 74.633814 59.459207 88.067778 94.842065 23.7581 62.575174 20.322861 135.488811 20.322861 135.488811l142.263098-47.421033 0.010233-0.961908 119.6818-37.638225c0 0-3.488451 15.236006 20.255323-47.27163 13.426801-35.341926 64.689325-59.567677 88.026846-94.733595 25.959232-39.115879 29.611411-76.6661 40.633443-94.740758 21.318538-34.95614 60.943001-40.59865 60.943001-40.59865s60.170404-4.199649 101.57542-67.670216c26.602891-40.781822 51.404764-68.103074 54.174853-94.740758C1006.006184 311.765583 992.138338 295.120484 976.841957 257.30625zM515.497661 933.756673c93.557816-25.691125 197.87672-59.107189 294.433846-119.176286 109.237937-58.430784 179.189102-125.59037 170.982186-125.068484 0 0 9.398044 25.990954-15.764032 51.664683-55.362912 56.487525-219.825614 149.954267-381.910153 193.242166-285.430798 76.226079-450.145234 52.972469-450.145234 52.972469S299.069423 993.186204 515.497661 933.756673z" /></svg>